Patient4_TMGait_0pt6_01_left_37_GRF.mot
version=1
nRows=32
nColumns=19
inDegrees=no
endheader
time	F1x	F1y	F1z	M1x	M1y	M1z	F2x	F2y	F2z	M2x	M2y	M2z	EC1x	EC1y	EC1z	EC2x	EC2y	EC2z
45.06	39.6457	-3.0686	6.7506	-1.4487	3.0789	-9.2687	-19.1802	698.9807	-45.8772	295.1997	50.1239	677.7999	-0.0592	0.0182	-0.0073	-0.0462	0.0165	0.9585
45.0724	26.4875	-1.8412	4.6419	-1.0352	1.8581	-6.0129	-15.8356	699.4519	-46.0748	294.6553	49.1958	675.4857	-0.0592	0.0182	-0.0073	-0.0462	0.0165	0.9585
45.0847	15.3643	-0.76325	2.8272	-0.6878	0.88346	-3.2119	-12.1783	701.9495	-46.1777	294.9189	47.9374	674.2672	-0.0592	0.0182	-0.0073	-0.0462	0.0165	0.9585
45.0971	6.8617	0.11893	1.4273	-0.43387	0.17229	-0.98941	-8.4001	707.1035	-46.205	296.297	46.4366	674.8375	-0.0592	0.0182	-0.0073	-0.0462	0.0165	0.9585
45.1094	1.0015	0.76131	0.44291	-0.26537	-0.27966	0.56273	-4.6525	715.2164	-46.2016	298.9455	44.8135	677.6257	-0.0592	0.0182	-0.0073	-0.0462	0.0165	0.9585
45.1218	-2.6641	1.2027	-0.17731	-0.16857	-0.53936	1.5847	-1.0584	726.1764	-46.2547	302.8286	43.2209	682.6949	-0.0592	0.0182	-0.0073	-0.0462	0.0165	0.9585
45.1341	-4.6024	1.4472	-0.52786	-0.11541	-0.64139	2.1388	2.3146	739.4206	-46.4318	307.7113	41.7713	689.66	-0.0592	0.0182	-0.0073	-0.0462	0.0165	0.9585
45.1465	-5.3887	1.5065	-0.67882	-0.075023	-0.66403	2.3483	5.3986	753.9849	-46.8125	313.1775	40.5778	697.7639	-0.0592	0.0182	-0.0073	-0.0462	0.0165	0.9585
45.1589	-5.4481	1.3682	-0.70709	-0.014101	-0.64456	2.2433	8.184	768.5769	-47.4237	318.6758	39.6811	705.9103	-0.0592	0.0182	-0.0073	-0.0462	0.0165	0.9585
45.1712	-5.1427	1.0022	-0.65011	0.10358	-0.63772	1.849	10.6466	781.7634	-48.2727	323.5928	39.0986	712.8936	-0.0592	0.0182	-0.0073	-0.0462	0.0165	0.9585
45.1836	-4.702	0.36442	-0.55858	0.31029	-0.64895	1.1325	12.8048	792.1116	-49.3221	327.327	38.7919	717.4709	-0.0592	0.0182	-0.0073	-0.0462	0.0165	0.9585
45.1959	-4.2586	-0.59986	-0.44035	0.64	-0.69266	0.030892	14.634	798.4673	-50.5156	329.3908	38.717	718.6859	-0.0592	0.0182	-0.0073	-0.0462	0.0165	0.9585
45.2083	-3.8586	-1.9326	-0.32965	1.1115	-0.74153	-1.4791	16.163	800.0147	-51.778	329.4462	38.8026	715.856	-0.0592	0.0182	-0.0073	-0.0462	0.0165	0.9585
45.2206	-3.4632	-3.6493	-0.2197	1.725	-0.7788	-3.4067	17.3879	796.4254	-53.0536	327.3577	39.0021	708.7426	-0.0592	0.0182	-0.0073	-0.0462	0.0165	0.9585
45.233	-3.0017	-5.6171	-0.14174	2.4315	-0.74166	-5.5953	18.3585	787.9504	-54.2967	323.2362	39.2576	697.5773	-0.0592	0.0182	-0.0073	-0.0462	0.0165	0.9585
45.2454	-2.2977	-7.5566	-0.104	3.1253	-0.55544	-7.7659	19.1085	775.4924	-55.4882	317.4631	39.534	683.1667	-0.0592	0.0182	-0.0073	-0.0462	0.0165	0.9585
45.2577	-1.1971	-8.8953	-0.14961	3.5983	-0.11773	-9.2924	19.7249	760.5042	-56.6161	310.6483	39.7888	666.7681	-0.0592	0.0182	-0.0073	-0.0462	0.0165	0.9585
45.2701	0.48602	-8.7904	-0.30545	3.5378	0.66908	-9.2837	20.3129	744.7673	-57.6711	303.5338	39.9812	649.9172	-0.0592	0.0182	-0.0073	-0.0462	0.0165	0.9585
45.2824	2.8589	-5.9974	-0.62955	2.4891	1.8999	-6.3619	20.9853	730.0965	-58.6277	296.8731	40.0519	634.1761	-0.0592	0.0182	-0.0073	-0.0462	0.0165	0.9585
45.2948	5.9571	1.0484	-1.1646	-0.12362	3.6301	1.173	21.8743	717.9945	-59.444	291.2886	39.9208	620.824	-0.0592	0.0182	-0.0073	-0.0462	0.0165	0.9585
45.3071	9.5878	14.1576	-1.9645	-4.9637	5.8441	15.3318	23.0609	709.3429	-60.0487	287.139	39.4937	610.6247	-0.0592	0.0182	-0.0073	-0.0462	0.0165	0.9585
45.3195	13.2827	35.0923	-3.0378	-12.6777	8.3746	38.0722	24.6457	704.0859	-60.3608	284.4022	38.6674	603.5063	-0.0592	0.0182	-0.0073	-0.0462	0.0165	0.9585
45.3319	16.1272	65.0989	-4.354	-23.7167	10.8379	70.8263	26.6748	701.2324	-60.2725	282.673	37.3307	598.6221	-0.0592	0.0182	-0.0073	-0.0462	0.0165	0.9585
45.3442	16.6911	104.1522	-5.7597	-38.0616	12.5398	113.6564	29.1922	698.9289	-59.6528	281.207	35.3669	594.3568	-0.0592	0.0182	-0.0073	-0.0462	0.0165	0.9585
45.3566	13.4873	150.3977	-6.975	-55.0124	12.6303	164.648	32.0956	694.8204	-58.3368	279.0589	32.6904	588.7233	-0.0592	0.0182	-0.0073	-0.0462	0.0165	0.9585
45.3689	6.1067	199.9545	-7.5565	-73.107	10.4736	219.6293	35.233	686.4067	-56.1656	275.2371	29.2617	579.5973	-0.0592	0.0182	-0.0073	-0.0462	0.0165	0.9585
45.3813	-3.7484	247.2493	-6.7383	-90.2402	5.8685	272.445	38.3255	671.5097	-53.0524	268.8762	25.1505	565.1903	-0.0592	0.0182	-0.0073	-0.0462	0.0165	0.9585
45.3936	-13.8355	287.0187	-4.0525	-104.4528	-0.80185	317.0888	41.1176	648.5713	-49.0409	259.363	20.5336	544.2115	-0.0592	0.0182	-0.0073	-0.0462	0.0165	0.9585
45.406	-22.6968	317.2297	-0.09381	-115.0143	-8.3539	351.0834	43.342	617.0054	-44.2945	246.4607	15.6672	516.2257	-0.0592	0.0182	-0.0073	-0.0462	0.0165	0.9585
45.4184	-29.7654	339.1931	4.5407	-122.4356	-15.906	375.8026	44.8468	577.1561	-39.0876	230.3043	10.8401	481.5535	-0.0592	0.0182	-0.0073	-0.0462	0.0165	0.9585
45.4307	-34.9631	355.9286	9.0822	-127.8836	-22.6108	394.4889	45.4901	530.1837	-33.6868	211.3532	6.3102	441.2204	-0.0592	0.0182	-0.0073	-0.0462	0.0165	0.9585
45.4431	-38.5921	370.8523	13.1914	-132.6508	-28.2028	410.8571	45.1533	477.773	-28.2829	190.2854	2.2614	396.6639	-0.0592	0.0182	-0.0073	-0.0462	0.0165	0.9585
